            <svg
              width="22"
              height="26"
              viewBox="0 0 22 26"
              fill="none"
              xmlns="http://www.w3.org/2000/svg"
            >
              <path
                d="M11.2429 2.20052C12.0513 1.18509 13.4386 0.405307 14.6255 0.321045C14.8245 1.70923 14.2749 3.06885 13.5485 4.03001C12.7721 5.06257 11.4321 5.86092 10.1353 5.8195C9.89872 4.48988 10.5054 3.12169 11.2429 2.20052ZM15.6531 5.82104C17.33 5.82104 19.1056 6.75723 20.3691 8.37041C16.227 10.6967 16.898 16.7568 21.0833 18.3794C20.5079 19.6863 20.2318 20.269 19.4897 21.4267C18.4546 23.0414 16.9968 25.0536 15.1872 25.0677C14.4433 25.0757 13.9553 24.8465 13.4291 24.5993C12.8193 24.3129 12.1582 24.0023 10.988 24.009C9.82425 24.0149 9.15253 24.3216 8.53433 24.6039C7.99457 24.8504 7.49561 25.0782 6.74559 25.0709C4.93756 25.0552 3.55532 23.2394 2.52017 21.6246C-0.372366 17.1118 -0.677818 11.8135 1.10707 8.99558C2.3767 6.99441 4.37911 5.82419 6.25965 5.82419C7.26191 5.82419 8.06969 6.11908 8.83946 6.40011C9.54007 6.65588 10.2092 6.90017 10.9648 6.90017C11.6641 6.90017 12.2389 6.67715 12.866 6.43389C13.6183 6.14204 14.4457 5.82104 15.6531 5.82104Z"
                fill="white"
              />
            </svg>