<svg width="22" height="24" viewBox="0 0 22 24" fill="none" xmlns="http://www.w3.org/2000/svg">
<path fill-rule="evenodd" clip-rule="evenodd" d="M1.5344 0.461197C2.43365 -0.0356837 3.49626 -0.0472728 4.40129 0.453954L15.6144 6.65555L12.0738 10.2033L1.5344 0.461197ZM0.512207 2.83863C0.512207 2.32001 0.659994 1.83078 0.917897 1.40325L11.5122 11.3128L0.890368 22.0833C0.646954 21.6645 0.512207 21.1856 0.512207 20.6831V2.83863ZM20.292 9.3892L16.8463 7.56325L12.9744 11.2803L17.7196 15.4833L20.2935 14.1191C21.2198 13.6261 21.7744 12.7422 21.7744 11.7534C21.7729 10.7647 21.2198 9.88075 20.292 9.3892ZM1.83221 23.0024L12.4543 12.4033L16.7922 16.3958L4.74531 23.0298C4.29303 23.2793 3.79884 23.4033 3.30754 23.4033C2.79891 23.4033 2.29316 23.2648 1.83221 23.0024Z" fill="white"/>
</svg>