<svg width="11" height="9" viewBox="0 0 11 9" fill="none" xmlns="http://www.w3.org/2000/svg">
<path d="M9.67941 0.387561C9.683 0.387561 9.68778 0.387561 9.69256 0.387561C9.81746 0.387561 9.9334 0.426405 10.0284 0.493337L10.0266 0.492142C10.0959 0.552501 10.1426 0.637361 10.1539 0.732979V0.734772C10.1659 0.80768 10.1724 0.891345 10.1724 0.976804C10.1724 1.01565 10.1712 1.0539 10.1683 1.09214V1.08676C10.0338 2.5025 9.45053 5.93577 9.15411 7.52063C9.02861 8.19174 8.7818 8.41644 8.54276 8.43796C8.02344 8.48637 7.62901 8.09493 7.12583 7.76505C6.33818 7.24812 5.89296 6.9266 5.12861 6.42282C4.24475 5.84135 4.81786 5.52043 5.32105 4.99812C5.45312 4.86067 7.74256 2.778 7.78738 2.58915C7.78977 2.5778 7.79097 2.56525 7.79097 2.5521C7.79097 2.50549 7.77363 2.46306 7.74555 2.43079V2.43079C7.71447 2.41047 7.67563 2.39911 7.63499 2.39911C7.6081 2.39911 7.5824 2.40449 7.5585 2.41346L7.55969 2.41286C7.48081 2.43079 6.22264 3.26226 3.78519 4.90728C3.51925 5.11704 3.1834 5.24971 2.81766 5.26525H2.81407C2.29595 5.2025 1.82563 5.08716 1.37921 4.92282L1.42344 4.93716C0.862878 4.75429 0.417659 4.65808 0.455906 4.34852C0.476225 4.18756 0.698137 4.02282 1.12164 3.85429C3.73041 2.71764 5.47005 1.96844 6.34057 1.60668C7.30093 1.09692 8.41427 0.677401 9.58499 0.405489L9.67881 0.386963L9.67941 0.387561Z" fill="white"/>
</svg>