<svg xmlns="http://www.w3.org/2000/svg" version="1.1" xmlns:xlink="http://www.w3.org/1999/xlink" width="1000" height="1000"><g clip-path="url(#SvgjsClipPath1301)"><rect width="1000" height="1000" fill="#433ab1"></rect><g transform="matrix(2.0588235294117645,0,0,2.0588235294117645,150.00000000000006,211.76470588235298)"><svg xmlns="http://www.w3.org/2000/svg" version="1.1" xmlns:xlink="http://www.w3.org/1999/xlink" width="340px" height="280px"><svg width="340px" height="280px" viewBox="0 0 340 280" version="1.1" xmlns="http://www.w3.org/2000/svg" xmlns:xlink="http://www.w3.org/1999/xlink">
    <title>Fill 1 Copy</title>
    <g id="Page-1" stroke="none" stroke-width="1" fill="none" fill-rule="evenodd">
        <path d="M335.6079,136.381 C332.3389,135.364 312.0579,133.447 301.4419,131.915 C281.3319,129.011 261.3459,125.438 242.2729,118.099 C223.0949,110.72 206.8609,99.495 196.1329,81.465 C188.8819,69.279 184.3099,55.978 181.1329,42.252 C178.1959,29.567 175.9799,16.906 173.1839,4.186 C172.8799,2.8 172.1669,0.617 170.3689,0.109 C170.3519,0.104 170.3329,0.102 170.3149,0.098 C170.0829,0.037 169.8359,0 169.5659,0 C169.5639,0 169.5619,0 169.5589,0 C169.5559,0 169.5539,0 169.5519,0 C169.2819,0 169.0349,0.037 168.8029,0.098 C168.7849,0.102 168.7659,0.104 168.7489,0.109 C166.9509,0.617 166.2379,2.8 165.9339,4.186 C163.1379,16.906 160.9219,29.567 157.9849,42.252 C154.8079,55.978 150.2359,69.279 142.9849,81.465 C132.2569,99.495 116.0229,110.72 96.8449,118.099 C77.7719,125.438 57.7859,129.011 37.6759,131.915 C27.0599,133.447 6.7789,135.364 3.5099,136.381 C0.2629,137.391 -0.0101,138.515 -0.000351783201,139.514 C-0.0101,140.514 0.2629,141.638 3.5099,142.648 C6.7789,143.665 27.0599,145.581 37.6759,147.114 C57.7859,150.018 77.7719,153.591 96.8449,160.93 C116.0229,168.309 132.2569,179.533 142.9849,197.564 C150.2359,209.75 154.8079,223.05 157.9849,236.777 C160.9219,249.461 163.1379,262.123 165.9339,274.843 C166.2379,276.228 166.9509,278.412 168.7489,278.919 C168.7659,278.924 168.7849,278.926 168.8029,278.931 C169.0349,278.992 169.2819,279.029 169.5519,279.029 C169.5539,279.029 169.5559,279.029 169.5589,279.029 C169.5619,279.029 169.5639,279.029 169.5659,279.029 C169.8359,279.029 170.0829,278.992 170.3149,278.931 C170.3329,278.926 170.3519,278.924 170.3689,278.919 C172.1669,278.412 172.8799,276.228 173.1839,274.843 C175.9799,262.123 178.1959,249.461 181.1329,236.777 C184.3099,223.05 188.8819,209.75 196.1329,197.564 C206.8609,179.533 223.0949,168.309 242.2729,160.93 C261.3459,153.591 281.3319,150.018 301.4419,147.114 C312.0579,145.581 332.3389,143.665 335.6079,142.648 C338.8549,141.638 339.1279,140.514 339.118152,139.514 C339.1279,138.515 338.8549,137.391 335.6079,136.381" id="Fill-1-Copy" fill="#FFFFFF"></path>
    </g>
</svg></svg></g></g><defs><clipPath id="SvgjsClipPath1301"><rect width="1000" height="1000" x="0" y="0" rx="300" ry="300"></rect></clipPath></defs></svg>