<svg width="34" height="38" viewBox="0 0 34 38" fill="none" xmlns="http://www.w3.org/2000/svg">
<path fill-rule="evenodd" clip-rule="evenodd" d="M15.7126 1.02483C16.4388 0.752474 17.23 0.718429 17.9725 0.922696L18.2874 1.02483L31.1207 5.83733C32.4566 6.33822 33.3715 7.56339 33.4875 8.96719L33.5 9.27054V19.1022C33.5 25.1682 30.1737 30.7287 24.8668 33.6062L24.379 33.8603L18.2298 36.9348C17.5416 37.279 16.7452 37.3172 16.033 37.0495L15.7702 36.9348L9.62098 33.8603C4.19545 31.1474 0.709489 25.6856 0.509126 19.6522L0.5 19.1022V9.27054C0.5 7.844 1.32591 6.55713 2.59957 5.95555L2.87921 5.83733L15.7126 1.02483ZM17 4.45804L4.16667 9.27054V19.1022C4.16667 23.801 6.733 28.1102 10.8314 30.3558L11.2607 30.5807L17 33.4504L22.7393 30.5807C26.9421 28.4794 29.6485 24.2568 29.8242 19.5868L29.8333 19.1022V9.27054L17 4.45804ZM25.8863 12.8201C25.1704 12.1041 24.0098 12.1041 23.2936 12.8201L14.8638 21.2499L11.623 18.009L11.4502 17.8565C10.731 17.2973 9.69112 17.3481 9.03022 18.009C8.31427 18.7249 8.31427 19.8857 9.03022 20.6017L13.4378 25.0094L13.6137 25.1661C14.4054 25.7929 15.5586 25.7407 16.2899 25.0094L25.8863 15.4128L26.0389 15.2401C26.5982 14.5209 26.5474 13.4809 25.8863 12.8201Z" fill="#80A867"/>
</svg>
